<svg width="332" height="50" viewBox="0 0 232 29" fill="none" xmlns="http://www.w3.org/2000/svg">
<path d="M0.76 28V26.16L4.44 25.28V2.72L0.76 1.84V-1.90735e-06H12.24C18.7467 -1.90735e-06 22 2.26666 22 6.8C22 8.26667 21.56 9.54667 20.68 10.64C19.8267 11.7333 18.6533 12.52 17.16 13V13.08C19.3467 13.48 21.0267 14.2933 22.2 15.52C23.4 16.7467 24 18.28 24 20.12C24 22.52 23.1067 24.44 21.32 25.88C19.5333 27.2933 17.12 28 14.08 28H0.76ZM9.36 25.56H12.84C14.7867 25.56 16.2933 25.0933 17.36 24.16C18.4267 23.2267 18.96 21.88 18.96 20.12C18.96 18.4933 18.4 17.1867 17.28 16.2C16.1867 15.2133 14.64 14.72 12.64 14.72H9.36V25.56ZM9.36 12.2H11.64C13.1867 12.2 14.4533 11.76 15.44 10.88C16.4533 9.97333 16.96 8.73333 16.96 7.16C16.96 5.56 16.4533 4.37333 15.44 3.6C14.4533 2.82666 13.1067 2.44 11.4 2.44H9.36V12.2ZM27.0025 28V26.28L30.4025 25.48V11.24H27.0025V9.52L33.4025 8H35.1625V10.48C37.3225 8.42667 39.8292 7.4 42.6825 7.4C42.8425 7.90667 42.9225 8.46667 42.9225 9.08C42.9225 10.0667 42.8025 10.9467 42.5625 11.72L37.4825 11.28C36.6825 11.6533 35.9092 12.1067 35.1625 12.64V25.48L39.3625 26.28V28H27.0025ZM55.1769 7.4C58.1102 7.4 60.5369 8.4 62.4569 10.4C64.3769 12.3733 65.3369 14.8933 65.3369 17.96C65.3369 21.0533 64.3769 23.6 62.4569 25.6C60.5369 27.6 58.1102 28.6 55.1769 28.6C52.2435 28.6 49.8035 27.6 47.8569 25.6C45.9369 23.6 44.9769 21.0533 44.9769 17.96C44.9769 14.8933 45.9369 12.3733 47.8569 10.4C49.8035 8.4 52.2435 7.4 55.1769 7.4ZM55.1769 9.6C53.5235 9.6 52.2435 10.36 51.3369 11.88C50.4569 13.4 50.0169 15.4267 50.0169 17.96C50.0169 20.4933 50.4569 22.5333 51.3369 24.08C52.2435 25.6267 53.5235 26.4 55.1769 26.4C56.8302 26.4 58.0969 25.6267 58.9769 24.08C59.8835 22.5067 60.3369 20.4667 60.3369 17.96C60.3369 15.4267 59.8835 13.4 58.9769 11.88C58.0969 10.36 56.8302 9.6 55.1769 9.6ZM66.6981 9.72V8H77.0181V9.72L74.3381 10.4L78.2581 21.32L82.7781 8H85.6181L90.2581 21.12L93.8981 10.52L90.6181 9.72V8H99.2981V9.72L96.2181 10.52L90.2981 28.28H87.7381L82.8981 14.68L78.2981 28.28H75.7781L69.2181 10.44L66.6981 9.72ZM101.39 27.68V21.96H103.23L104.75 26.16C105.683 26.32 106.723 26.4 107.87 26.4C109.576 26.4 110.776 26.1867 111.47 25.76C112.19 25.3067 112.55 24.5467 112.55 23.48C112.55 22.6533 112.163 21.9733 111.39 21.44C110.616 20.88 109.283 20.2267 107.39 19.48C105.603 18.7333 104.216 17.8533 103.23 16.84C102.243 15.8 101.75 14.4933 101.75 12.92C101.75 11.1333 102.496 9.77333 103.99 8.84C105.51 7.88 107.483 7.4 109.91 7.4C112.016 7.4 113.923 7.65333 115.63 8.16V13.6H113.95L112.63 9.84C111.856 9.62667 110.95 9.52 109.91 9.52C108.47 9.52 107.456 9.74667 106.87 10.2C106.31 10.6267 106.03 11.28 106.03 12.16C106.03 12.6667 106.216 13.12 106.59 13.52C106.963 13.92 107.376 14.2533 107.83 14.52C108.31 14.76 109.07 15.1067 110.11 15.56C112.536 16.5733 114.27 17.6 115.31 18.64C116.376 19.6533 116.91 20.9733 116.91 22.6C116.91 24.5467 116.123 26.04 114.55 27.08C112.976 28.0933 110.923 28.6 108.39 28.6C105.883 28.6 103.55 28.2933 101.39 27.68ZM120.25 17.76C120.25 14.8267 121.09 12.3733 122.77 10.4C124.45 8.4 126.77 7.4 129.73 7.4C131.277 7.4 132.624 7.69333 133.77 8.28C134.944 8.84 135.864 9.62667 136.53 10.64C137.224 11.6533 137.73 12.7867 138.05 14.04C138.37 15.2933 138.53 16.6533 138.53 18.12H125.01C125.197 20.3067 125.93 22.1733 127.21 23.72C128.49 25.24 130.237 26 132.45 26C133.864 26 135.397 25.6933 137.05 25.08L137.73 26.96C135.25 28.0533 132.89 28.6 130.65 28.6C127.424 28.6 124.877 27.5467 123.01 25.44C121.17 23.3333 120.25 20.7733 120.25 17.76ZM125.01 16.16L133.57 15.52C133.49 13.92 133.117 12.5333 132.45 11.36C131.784 10.1867 130.837 9.6 129.61 9.6C128.277 9.6 127.184 10.2267 126.33 11.48C125.504 12.7333 125.064 14.2933 125.01 16.16ZM141.424 28V26.16L145.104 25.28V2.72L141.424 1.84V-1.90735e-06H152.904C159.411 -1.90735e-06 162.664 2.26666 162.664 6.8C162.664 8.26667 162.224 9.54667 161.344 10.64C160.491 11.7333 159.317 12.52 157.824 13V13.08C160.011 13.48 161.691 14.2933 162.864 15.52C164.064 16.7467 164.664 18.28 164.664 20.12C164.664 22.52 163.771 24.44 161.984 25.88C160.197 27.2933 157.784 28 154.744 28H141.424ZM150.024 25.56H153.504C155.451 25.56 156.957 25.0933 158.024 24.16C159.091 23.2267 159.624 21.88 159.624 20.12C159.624 18.4933 159.064 17.1867 157.944 16.2C156.851 15.2133 155.304 14.72 153.304 14.72H150.024V25.56ZM150.024 12.2H152.304C153.851 12.2 155.117 11.76 156.104 10.88C157.117 9.97333 157.624 8.73333 157.624 7.16C157.624 5.56 157.117 4.37333 156.104 3.6C155.117 2.82666 153.771 2.44 152.064 2.44H150.024V12.2ZM167.02 9.72V8H175.18V21.8C175.18 24.4667 176.327 25.8 178.62 25.8C180.433 25.8 182.14 25.12 183.74 23.76V10.52L181.14 9.72V8H188.5V25.4H191.62V26.72C190.98 27.28 190.26 27.7333 189.46 28.08C188.687 28.4267 187.913 28.6 187.14 28.6C186.527 28.6 185.98 28.48 185.5 28.24C185.047 28.0267 184.7 27.7467 184.46 27.4C184.22 27.0533 184.047 26.7733 183.94 26.56C183.833 26.32 183.767 26.12 183.74 25.96C181.633 27.72 179.367 28.6 176.94 28.6C174.807 28.6 173.18 28.0267 172.06 26.88C170.967 25.7333 170.42 24.2133 170.42 22.32V10.52L167.02 9.72ZM193.958 28V26L205.118 10.16H197.878L195.958 14.2H194.518L194.958 8H210.918V9.96L199.758 25.8H207.238L209.318 21.36H210.878L210.478 28H193.958ZM214.349 28V26L225.509 10.16H218.269L216.349 14.2H214.909L215.349 8H231.309V9.96L220.149 25.8H227.629L229.709 21.36H231.269L230.869 28H214.349Z" fill="white"/>
</svg>
